<svg width="829" height="423" viewBox="0 0 829 423" fill="none" xmlns="http://www.w3.org/2000/svg">
<path d="M83.5782 401.974C73.5827 401.974 66.583 391.443 77.5782 389.974C418.924 344.381 650.229 325.141 724.698 377.164C746.688 393.156 718.198 431.592 705.207 421.143C613.249 347.177 349.958 365.991 83.5782 401.974Z" fill="#F48969"/>
<path d="M787.958 120.474C787.958 120.474 761.97 128.47 754.973 140.464C747.976 152.459 741.479 184 741.479 184C741.479 184 735.981 154.458 726.226 140.464C716.47 126.471 695 120.474 695 120.474C695 120.474 716.47 115.476 726.226 100.983C735.981 86.4895 741.479 59 741.479 59C741.479 59 746.477 85.4899 754.973 100.983C763.469 116.475 787.958 120.474 787.958 120.474Z" fill="url(#paint0_linear_1538_24081)"/>
<path d="M828.976 158.985C828.976 158.985 814.166 163.514 810.178 170.307C806.191 177.1 802.488 190.97 802.488 190.97C802.488 190.97 799.355 178.233 793.795 170.307C788.236 162.382 776 158.985 776 158.985C776 158.985 788.236 156.154 793.795 147.946C799.355 139.737 802.488 127 802.488 127C802.488 127 805.336 139.171 810.178 147.946C815.02 156.721 828.976 158.985 828.976 158.985Z" fill="url(#paint1_linear_1538_24081)"/>
<path d="M724.503 227.144L668.268 278.456C666.774 279.819 664.404 278.364 664.95 276.417C669.316 260.845 679.5 223.064 679.5 209.417C679.5 187.941 669.496 181.181 660 185.678C656.005 188.253 620.983 211.54 595.211 245.849C593.994 247.469 591.328 246.541 591.458 244.519C592.337 230.808 594.243 201.309 595 191.178C595.999 177.806 577.497 177.062 570.5 185.678C564.518 193.045 536.237 223.433 528.159 232.092C527.491 232.809 526.304 232.233 526.434 231.263C527.761 221.349 531.495 190.907 528.5 182.678C527.001 178.559 510.5 174.178 510.5 182.678C510.5 191.178 490.995 235.686 479.5 251.678C468.005 267.671 445.994 284 432.5 284C419.006 284 451.501 189.667 453.5 166.178C454.106 159.06 442.753 149.24 431.764 170.484C431.001 171.96 428.793 172.081 427.777 170.767C412.207 150.627 367.73 155.04 352.954 170.178C324.048 203.071 263.823 338.736 230.777 333.051C230.591 333.019 230.421 332.965 230.263 332.863C215.607 323.465 272.627 177.404 332.5 50.1785C336.969 40.683 315.98 28.2957 308.483 42.2895L292 70.1785L272 108.178L237.978 177.178C207.464 242.402 201 267.27 201 307.251C202.499 336.737 216.016 362.497 251 356C275.108 351.523 312.034 306.689 329.338 263.487C329.989 261.862 332.317 261.733 333.218 263.235C356.208 301.558 404.213 276.226 410.5 251.678C403.969 277.178 429.506 307.251 443.5 307.251C476.485 307.251 491.503 268 498.5 268C505.497 268 506.004 281.676 515.5 277.178C523.468 273.404 556.79 228.252 567.306 213.821C567.961 212.923 569.441 213.612 569.182 214.693C565.074 231.852 553.746 285.315 570.5 291.178C590.491 298.174 596.623 286.344 607 271.178C616.348 257.517 634.758 235.824 644.355 224.725C645.765 223.094 648.378 224.53 647.744 226.592C642.012 245.237 629.274 287.294 628.5 295.256C627.499 305.55 639.005 313.178 650.5 313.178C661.995 313.178 671.214 302.712 675.5 298.678C698.641 276.9 731 234.405 731 234.405C736.708 229.139 730.728 221.382 724.503 227.144Z" fill="url(#paint2_linear_1538_24081)"/>
<path d="M178.959 202.051C168.548 199.739 105.369 202.051 105.369 202.051C120.369 167.427 133.398 172.766 156.445 175.051C176.651 177.054 204.411 191.685 210.95 195.263C211.782 195.718 212.166 196.68 211.87 197.581C199.088 236.455 172.276 297.542 181.577 347.051C173.369 347.051 169.369 343.551 162.45 333.051L157.599 315.397C157.146 313.748 154.951 313.383 153.94 314.762C137.01 337.869 112.451 352.051 81.0511 352.051C51.2076 352.051 13.7465 332.837 5.36931 294.051C-27.8639 140.185 101.352 11.9116 168.369 1.05133C235.386 -9.80897 222.369 67.0511 222.369 67.0511C220.553 99.9467 205.369 119.051 181.577 111.051C163.337 104.918 179.369 98.0512 192.369 82.0512C205.369 66.0512 211.982 25.8296 198.369 18.0511C156.369 -5.94885 85.0495 88.4826 57.3693 159.051C8.15366 298.165 58.2027 324.895 87.3693 333.051C138.369 347.311 189.369 204.363 178.959 202.051Z" fill="url(#paint3_linear_1538_24081)"/>
<path d="M357.009 265.95C314.548 272.123 387.255 147.792 415.009 181.95C428.009 197.95 404.463 259.053 357.009 265.95Z" fill="#FEFEFE"/>
<defs>
<linearGradient id="paint0_linear_1538_24081" x1="787.958" y1="120.224" x2="706.868" y2="120.039" gradientUnits="userSpaceOnUse">
<stop offset="0.333333" stop-color="#F4846C"/>
<stop offset="1" stop-color="#F16D70"/>
</linearGradient>
<linearGradient id="paint1_linear_1538_24081" x1="828.976" y1="158.985" x2="782.763" y2="158.88" gradientUnits="userSpaceOnUse">
<stop offset="0.333333" stop-color="#F4846C"/>
<stop offset="1" stop-color="#F16D70"/>
</linearGradient>
<linearGradient id="paint2_linear_1538_24081" x1="439.3" y1="67.178" x2="438.887" y2="316" gradientUnits="userSpaceOnUse">
<stop offset="0.348057" stop-color="#F16D70"/>
<stop offset="1" stop-color="#F4846C"/>
</linearGradient>
<linearGradient id="paint3_linear_1538_24081" x1="114.434" y1="31.0512" x2="114.434" y2="352.051" gradientUnits="userSpaceOnUse">
<stop stop-color="#F16D70"/>
<stop offset="1" stop-color="#F4846C"/>
</linearGradient>
</defs>
</svg>
