<svg width="22" height="22"  fill="none" xmlns="http://www.w3.org/2000/svg">
<g >
<path d="M11 4.3418C6 4.3418 1.73 7.34763 0 11.5906C1.73 15.8335 6 18.8394 11 18.8394C16 18.8394 20.27 15.8335 22 11.5906C20.27 7.34763 16 4.3418 11 4.3418ZM11 16.4231C8.24 16.4231 6 14.2581 6 11.5906C6 8.92303 8.24 6.75806 11 6.75806C13.76 6.75806 16 8.92303 16 11.5906C16 14.2581 13.76 16.4231 11 16.4231ZM11 8.69107C9.34 8.69107 8 9.98618 8 11.5906C8 13.195 9.34 14.4901 11 14.4901C12.66 14.4901 14 13.195 14 11.5906C14 9.98618 12.66 8.69107 11 8.69107Z" fill="#F57E88"/>
<rect width="27.4703" height="2.46484" rx="1" transform="matrix(0.669175 0.743105 -0.765254 0.643728 2.32031 0)" fill="#F57E88"/>
</g>
</svg>
