<svg width="22" height="22"  fill="none" xmlns="http://www.w3.org/2000/svg">
<path d="M11.1094 0.341797C6.10938 0.341797 1.83938 3.34763 0.109375 7.59058C1.83938 11.8335 6.10938 14.8394 11.1094 14.8394C16.1094 14.8394 20.3794 11.8335 22.1094 7.59058C20.3794 3.34763 16.1094 0.341797 11.1094 0.341797ZM11.1094 12.4231C8.34938 12.4231 6.10938 10.2581 6.10938 7.59058C6.10938 4.92303 8.34938 2.75806 11.1094 2.75806C13.8694 2.75806 16.1094 4.92303 16.1094 7.59058C16.1094 10.2581 13.8694 12.4231 11.1094 12.4231ZM11.1094 4.69107C9.44938 4.69107 8.10938 5.98618 8.10938 7.59058C8.10938 9.19498 9.44938 10.4901 11.1094 10.4901C12.7694 10.4901 14.1094 9.19498 14.1094 7.59058C14.1094 5.98618 12.7694 4.69107 11.1094 4.69107Z" fill="#F57E88"/>
</svg>
