<svg width="249" height="273" viewBox="0 0 249 273" fill="none" xmlns="http://www.w3.org/2000/svg">
<path d="M36.8051 251.25C85.2236 280.251 163.736 280.251 212.176 251.25C260.616 222.249 260.6 175.295 212.176 146.318C163.752 117.342 85.2454 117.342 36.8269 146.318C-11.5917 175.295 -11.6189 222.274 36.8051 251.25Z" fill="#F5F5F5"/>
<path d="M33.898 199.086L32.5026 198.182C31.9054 197.746 31.4086 197.158 31.0524 196.466C30.6963 195.774 30.491 194.998 30.4531 194.201V57.1594C30.491 56.3619 30.6963 55.5856 31.0524 54.8938C31.4086 54.2019 31.9054 53.614 32.5026 53.1778L88.9173 16.684C89.5534 16.3229 90.2564 16.1348 90.9695 16.1348C91.6826 16.1348 92.3856 16.3229 93.0217 16.684L94.4389 17.5878C95.036 18.024 95.5329 18.6119 95.889 19.3037C96.2451 19.9956 96.4505 20.7719 96.4883 21.5694V158.611C96.4505 159.408 96.2451 160.184 95.889 160.876C95.5329 161.568 95.036 162.156 94.4389 162.592L38.0078 199.086C37.3708 199.447 36.6668 199.635 35.9529 199.635C35.2389 199.635 34.535 199.447 33.898 199.086Z" fill="#37474F"/>
<path d="M38.7071 59.84L31.0761 54.8936C30.7074 55.5793 30.501 56.3591 30.4766 57.1592V194.2C30.5144 194.998 30.7198 195.774 31.0759 196.466C31.432 197.158 31.9289 197.746 32.526 198.182L33.9214 199.086C34.5584 199.447 35.2624 199.635 35.9763 199.635C36.6903 199.635 37.3942 199.447 38.0312 199.086L38.7289 198.634L38.7071 59.84Z" fill="#263238"/>
<path d="M35.9453 60.7193V197.76C35.9453 199.226 36.8665 199.818 38.0002 199.086L94.4313 162.592C95.0285 162.156 95.5253 161.568 95.8815 160.876C96.2376 160.184 96.4429 159.408 96.4808 158.61V21.5691C96.4808 20.1035 95.5651 19.5111 94.4313 20.2439L38.0002 56.7438C37.4043 57.1805 36.908 57.7676 36.5511 58.458C36.1942 59.1484 35.9868 59.9229 35.9453 60.7193Z" fill="#455A64"/>
<path d="M40.4715 69.3791L91.768 36.2012C92.7383 35.5905 93.5286 36.0852 93.5286 37.3431V146.654C93.4951 147.338 93.3183 148.005 93.0124 148.599C92.7066 149.193 92.2803 149.698 91.768 150.073L40.4715 183.263C39.4958 183.874 38.7109 183.379 38.7109 182.122V72.811C38.7406 72.1236 38.9157 71.4539 39.2218 70.8572C39.5279 70.2605 39.9563 69.7538 40.4715 69.3791Z" fill="#FAFAFA"/>
<path d="M66.215 42.0458C66.9726 41.5573 67.5885 41.9542 67.5885 42.9374C67.5632 43.4719 67.4255 43.9922 67.1869 44.4559C66.9482 44.9196 66.6152 45.3137 66.215 45.6061C65.4519 46.1007 64.8359 45.6977 64.8359 44.7206C64.8619 44.1847 65.0004 43.6632 65.24 43.1985C65.4796 42.7337 65.8136 42.3388 66.215 42.0458Z" fill="#263238"/>
<path d="M62.2393 49.7456C65.0355 48.0174 70.0174 44.6893 72.7755 42.8756C73.2443 42.5641 73.6204 42.7779 73.6204 43.3519C73.5988 43.6716 73.5106 43.9813 73.363 44.2559C73.2153 44.5306 73.0122 44.7627 72.77 44.9335L62.2175 51.7609C61.7487 52.0662 61.3672 51.8464 61.3672 51.2784C61.3913 50.963 61.4832 50.6589 61.6351 50.3919C61.787 50.125 61.9943 49.9033 62.2393 49.7456Z" fill="#263238"/>
<path d="M59.5552 51.4735C59.9804 51.1926 60.3238 51.4186 60.3238 51.9682C60.3103 52.2687 60.2336 52.5613 60.1001 52.8224C59.9665 53.0834 59.7798 53.3055 59.5552 53.4704C59.1301 53.7452 58.7812 53.5193 58.7812 52.9697C58.7967 52.6698 58.8747 52.3782 59.0092 52.1183C59.1436 51.8584 59.3307 51.6376 59.5552 51.4735Z" fill="#263238"/>
<path d="M66.2214 170.165C67.7366 169.182 68.9467 169.976 68.9467 171.942C68.8979 173.009 68.6259 174.048 68.1524 174.975C67.679 175.902 67.0175 176.691 66.2214 177.279C64.7006 178.262 63.4688 177.469 63.4688 175.502C63.5205 174.433 63.7968 173.392 64.2751 172.465C64.7534 171.537 65.4202 170.749 66.2214 170.165Z" fill="#263238"/>
<path d="M123.597 192.185C123.262 191.929 122.985 191.588 122.789 191.19C122.593 190.793 122.484 190.349 122.469 189.895V116.993C122.491 116.524 122.612 116.068 122.821 115.662C123.03 115.255 123.322 114.91 123.673 114.654L207.151 60.658C207.499 60.4119 207.901 60.2771 208.313 60.2681C208.725 60.259 209.131 60.3762 209.488 60.6068C209.844 60.8375 210.138 61.1729 210.337 61.5768C210.536 61.9808 210.633 62.438 210.617 62.8992V135.801C210.595 136.27 210.474 136.726 210.265 137.132C210.056 137.539 209.764 137.884 209.413 138.14L125.935 192.142C125.576 192.353 125.177 192.467 124.771 192.475C124.365 192.482 123.963 192.383 123.597 192.185Z" fill="#455A64"/>
<path d="M210.604 62.6732C210.517 61.977 210.015 61.7205 209.41 62.1175L125.933 116.113C125.576 116.361 125.283 116.708 125.082 117.121L122.82 115.661C123.021 115.249 123.314 114.901 123.671 114.654L207.154 60.6519C207.487 60.4162 207.87 60.2827 208.264 60.2648C208.658 60.2469 209.049 60.3452 209.398 60.5498C209.747 60.7545 210.043 61.0583 210.254 61.431C210.466 61.8036 210.586 62.232 210.604 62.6732Z" fill="#37474F"/>
<path d="M125.652 192.277C125.625 192.296 125.596 192.308 125.565 192.314C125.511 192.343 125.454 192.364 125.396 192.375H125.303C125.246 192.393 125.188 192.406 125.129 192.411H124.987C124.779 192.442 124.568 192.442 124.36 192.411C124.095 192.381 123.837 192.291 123.602 192.149C123.266 191.894 122.988 191.554 122.791 191.156C122.594 190.758 122.483 190.314 122.469 189.859V116.987C122.484 116.519 122.606 116.063 122.823 115.662L125.085 117.122C124.868 117.524 124.746 117.983 124.731 118.453V191.361C124.712 191.538 124.74 191.717 124.81 191.876C124.881 192.036 124.992 192.169 125.129 192.259C125.188 192.292 125.253 192.313 125.319 192.32C125.394 192.332 125.469 192.332 125.543 192.32L125.652 192.277Z" fill="#263238"/>
<path d="M131.5 137.456V148.955C131.5 149.816 132.045 150.177 132.705 149.737L146.113 141.059C146.464 140.802 146.755 140.457 146.964 140.051C147.174 139.644 147.295 139.189 147.318 138.72V127.227C147.318 126.366 146.773 126.006 146.113 126.446L132.705 135.123C132.354 135.378 132.062 135.722 131.852 136.128C131.643 136.533 131.522 136.988 131.5 137.456Z" fill="#F57E88"/>
<mask id="mask0_944_23764" style="mask-type:alpha" maskUnits="userSpaceOnUse" x="131" y="126" width="17" height="24">
<path d="M131.5 137.456V148.955C131.5 149.816 132.045 150.177 132.705 149.737L146.113 141.059C146.464 140.802 146.755 140.457 146.964 140.051C147.174 139.644 147.295 139.189 147.318 138.72V127.227C147.318 126.366 146.773 126.006 146.113 126.446L132.705 135.123C132.354 135.378 132.062 135.722 131.852 136.128C131.643 136.533 131.522 136.988 131.5 137.456Z" fill="white"/>
</mask>
<g mask="url(#mask0_944_23764)">
<path d="M149.453 128.292L129.117 141.457L129.39 141.986L149.726 128.821L149.453 128.292Z" fill="white"/>
<path d="M136.311 137.328H135.766V143.191H136.311V137.328Z" fill="white"/>
<path d="M143.092 132.968H142.547V138.818H143.092V132.968Z" fill="white"/>
<path d="M149.453 134.167L129.117 147.332L129.39 147.861L149.726 134.696L149.453 134.167Z" fill="white"/>
</g>
<path d="M132.041 128.15C131.981 128.113 131.953 128.015 131.953 127.857V121.475C131.95 121.332 131.98 121.191 132.041 121.066C132.108 120.938 132.206 120.835 132.324 120.767L134.755 119.191C135.36 118.8 135.818 118.684 136.123 118.849C136.428 119.014 136.581 119.417 136.581 120.07C136.578 120.421 136.513 120.768 136.39 121.09C136.274 121.423 136.102 121.727 135.883 121.988C136.428 121.866 136.734 122.22 136.734 123.057C136.729 123.475 136.655 123.889 136.516 124.278C136.361 124.726 136.136 125.14 135.851 125.499C135.538 125.895 135.17 126.231 134.761 126.495L132.329 128.064C132.204 128.192 132.106 128.192 132.041 128.15ZM134.521 122.312C134.733 122.182 134.911 121.992 135.038 121.762C135.159 121.54 135.222 121.283 135.218 121.023C135.218 120.73 135.164 120.559 135.049 120.504C134.935 120.449 134.761 120.504 134.504 120.657L133.305 121.438V123.087L134.521 122.312ZM134.657 125.273C134.876 125.136 135.058 124.936 135.184 124.693C135.311 124.45 135.377 124.174 135.376 123.893C135.376 123.588 135.306 123.399 135.169 123.338C135.069 123.311 134.964 123.309 134.864 123.334C134.763 123.358 134.668 123.407 134.586 123.478L133.322 124.302V126.134L134.657 125.273Z" fill="white"/>
<path d="M136.739 125.053C136.733 124.99 136.733 124.926 136.739 124.864L138.887 116.858C138.915 116.74 138.957 116.627 139.012 116.522C139.065 116.436 139.136 116.367 139.219 116.32L139.824 115.929C139.911 115.874 139.977 115.85 140.02 115.868C140.079 115.907 140.124 115.967 140.146 116.039L142.293 121.273C142.301 121.323 142.301 121.375 142.293 121.425C142.294 121.483 142.281 121.54 142.255 121.589C142.229 121.639 142.191 121.679 142.146 121.706L141.143 122.354C141.095 122.395 141.035 122.417 140.974 122.415C140.936 122.415 140.909 122.366 140.876 122.299L140.5 121.279L138.483 122.586L138.107 124.088C138.089 124.175 138.058 124.257 138.015 124.332C137.968 124.395 137.91 124.447 137.846 124.485L136.892 125.138C136.788 125.199 136.739 125.175 136.739 125.053ZM140.228 120.253L139.535 118.378L138.843 121.145L140.228 120.253Z" fill="white"/>
<path d="M143.119 120.992C143.059 120.956 143.032 120.858 143.032 120.705V114.33C143.027 114.189 143.058 114.05 143.119 113.927C143.189 113.796 143.291 113.69 143.413 113.621L143.926 113.292C143.989 113.243 144.062 113.211 144.138 113.2C144.197 113.209 144.251 113.242 144.291 113.292L146.613 116.028V112.028C146.609 111.883 146.639 111.74 146.7 111.612C146.769 111.486 146.867 111.383 146.983 111.313L147.605 110.91C147.746 110.818 147.839 110.794 147.899 110.837C147.959 110.88 147.981 110.977 147.981 111.142V117.499C147.985 117.639 147.957 117.778 147.899 117.902C147.827 118.03 147.725 118.133 147.605 118.202L147.06 118.543C146.998 118.59 146.927 118.618 146.853 118.623C146.794 118.615 146.74 118.585 146.7 118.537L144.372 115.814V119.82C144.376 119.958 144.348 120.094 144.291 120.217C144.219 120.346 144.117 120.452 143.996 120.522L143.375 120.919C143.271 121.011 143.173 121.029 143.119 120.992Z" fill="white"/>
<path d="M153.491 114.214C153.492 114.271 153.478 114.328 153.452 114.377C153.426 114.427 153.389 114.468 153.343 114.495L152.308 115.16C152.26 115.193 152.209 115.218 152.155 115.233C152.118 115.239 152.081 115.228 152.052 115.203L150.22 113.273V116.095C150.223 116.234 150.195 116.373 150.138 116.498C150.065 116.624 149.963 116.727 149.844 116.797L149.223 117.2C149.092 117.285 148.999 117.31 148.939 117.273C148.879 117.236 148.852 117.133 148.852 116.98V110.592C148.848 110.45 148.878 110.308 148.939 110.183C149.008 110.055 149.106 109.95 149.223 109.878L149.844 109.475C149.986 109.389 150.078 109.365 150.138 109.402C150.198 109.438 150.22 109.542 150.22 109.707V112.473V112.418L151.992 108.211C152.017 108.145 152.052 108.085 152.095 108.034C152.147 107.981 152.204 107.933 152.264 107.893L153.283 107.234C153.387 107.173 153.436 107.203 153.436 107.325C153.432 107.396 153.416 107.464 153.387 107.527L151.419 112.07L153.441 114.073C153.459 114.091 153.473 114.112 153.481 114.137C153.49 114.161 153.493 114.188 153.491 114.214Z" fill="white"/>
<path d="M157.796 110.789C157.251 110.477 157 109.708 157 108.474C156.987 107.305 157.255 106.154 157.774 105.14C158.314 104.135 159.079 103.305 159.993 102.734C160.336 102.501 160.701 102.315 161.083 102.178C161.351 102.074 161.636 102.043 161.917 102.087C161.929 102.088 161.941 102.092 161.952 102.099C161.962 102.106 161.972 102.115 161.98 102.126C161.987 102.136 161.993 102.149 161.996 102.162C161.999 102.175 162 102.189 161.999 102.203C161.994 102.277 161.977 102.349 161.95 102.416L161.655 103.259C161.635 103.334 161.595 103.4 161.541 103.448C161.497 103.474 161.448 103.485 161.399 103.479C160.955 103.478 160.521 103.624 160.151 103.9C159.594 104.254 159.135 104.771 158.821 105.397C158.499 106.072 158.338 106.829 158.352 107.595C158.352 108.438 158.516 108.969 158.843 109.177C159.066 109.272 159.308 109.3 159.544 109.258C159.78 109.216 160.003 109.106 160.189 108.938C160.691 108.626 161.136 108.212 161.503 107.717C161.543 107.656 161.59 107.603 161.644 107.558C161.683 107.558 161.721 107.558 161.759 107.601L162.081 108.114C162.1 108.144 162.111 108.18 162.113 108.218C162.098 108.301 162.064 108.379 162.015 108.444C161.477 109.228 160.795 109.874 160.015 110.337C159.066 110.948 158.32 111.094 157.796 110.789Z" fill="white"/>
<path d="M162.433 108.431C162.429 108.37 162.429 108.309 162.433 108.248L164.613 100.236C164.637 100.116 164.679 100.003 164.738 99.8999C164.792 99.8195 164.861 99.7529 164.94 99.7044L165.545 99.3075C165.603 99.2601 165.676 99.2403 165.747 99.2525C165.807 99.289 165.852 99.3504 165.872 99.4235L168.02 104.651C168.027 104.703 168.027 104.757 168.02 104.81C168.022 104.867 168.009 104.923 167.983 104.972C167.956 105.02 167.918 105.06 167.872 105.084L166.87 105.738C166.82 105.777 166.761 105.798 166.701 105.799C166.678 105.789 166.657 105.773 166.64 105.753C166.623 105.733 166.61 105.709 166.602 105.683L166.221 104.663L164.21 105.964L163.839 107.472C163.819 107.556 163.787 107.637 163.746 107.71C163.699 107.776 163.639 107.83 163.572 107.869L162.574 108.516C162.482 108.584 162.433 108.553 162.433 108.431ZM165.921 103.631L165.234 101.762L164.537 104.529L165.921 103.631Z" fill="white"/>
<path d="M168.798 104.376C168.744 104.339 168.711 104.241 168.711 104.083V97.7194C168.71 97.5771 168.74 97.4367 168.798 97.3102C168.87 97.1841 168.969 97.081 169.087 97.011L171.186 95.6553C172.585 94.7434 173.286 95.0813 173.29 96.669C173.293 97.1673 173.208 97.6614 173.039 98.1224C172.867 98.5995 172.618 99.0365 172.303 99.4109L173.175 101.316C173.184 101.36 173.184 101.406 173.175 101.451C173.175 101.515 173.159 101.578 173.128 101.632C173.097 101.686 173.053 101.729 173.001 101.756L172.085 102.367C172.033 102.409 171.974 102.436 171.911 102.446C171.867 102.446 171.834 102.409 171.807 102.342L171.044 100.51L170.057 101.121V103.222C170.066 103.367 170.035 103.512 169.969 103.637C169.903 103.762 169.805 103.862 169.687 103.924L169.065 104.327C168.956 104.376 168.858 104.412 168.798 104.376ZM170.978 99.2338C171.263 99.0637 171.506 98.8185 171.687 98.5193C171.849 98.2309 171.933 97.8954 171.927 97.5545C171.927 97.182 171.851 96.9438 171.709 96.8766C171.567 96.8095 171.349 96.8766 171.06 97.0354L170.079 97.6583V99.8018L170.978 99.2338Z" fill="white"/>
<path d="M174.064 100.976C174.004 100.939 173.977 100.841 173.977 100.683V94.3255C173.973 94.1828 174.003 94.0415 174.064 93.9163C174.132 93.787 174.23 93.6813 174.348 93.611L176.092 92.4874C177.037 91.8726 177.754 91.6996 178.245 91.9683C178.735 92.237 178.981 93.0003 178.981 94.2583C179.008 95.3955 178.751 96.5186 178.239 97.501C177.706 98.4509 176.968 99.2345 176.092 99.7788L174.348 100.902C174.217 100.988 174.119 101.012 174.064 100.976ZM176.157 98.4353C176.616 98.151 176.994 97.7277 177.247 97.214C177.517 96.5714 177.642 95.865 177.613 95.156C177.613 94.3011 177.493 93.7759 177.247 93.5805C177.002 93.3851 176.637 93.4522 176.157 93.7698L175.345 94.295V98.9788L176.157 98.4353Z" fill="white"/>
<path d="M131.5 159.392V162.122C131.5 162.983 132.045 163.343 132.705 162.903L146.113 154.226C146.462 153.968 146.751 153.622 146.958 153.215C147.166 152.809 147.285 152.354 147.307 151.887V149.157C147.307 148.296 146.762 147.936 146.102 148.375L132.694 157.053C132.345 157.311 132.055 157.656 131.847 158.063C131.64 158.469 131.521 158.925 131.5 159.392Z" fill="#EBEBEB"/>
<path d="M150.336 147.208V149.938C150.336 150.799 150.881 151.159 151.541 150.714L164.955 142.042C165.305 141.785 165.597 141.44 165.806 141.034C166.015 140.627 166.136 140.172 166.159 139.703V136.974C166.159 136.113 165.614 135.752 164.955 136.192L151.541 144.87C151.19 145.126 150.898 145.471 150.688 145.877C150.479 146.284 150.358 146.74 150.336 147.208Z" fill="#EBEBEB"/>
<path d="M169.18 135.02V137.749C169.18 138.611 169.725 138.971 170.384 138.531L183.793 129.853C184.144 129.599 184.436 129.255 184.645 128.849C184.855 128.444 184.975 127.988 184.998 127.521V124.785C184.998 123.924 184.453 123.564 183.793 124.009L170.384 132.681C170.034 132.938 169.742 133.283 169.533 133.689C169.324 134.096 169.203 134.551 169.18 135.02Z" fill="#EBEBEB"/>
<path d="M188.008 122.837V125.567C188.008 126.428 188.553 126.788 189.212 126.349L202.627 117.671C202.978 117.415 203.27 117.07 203.479 116.663C203.688 116.257 203.809 115.801 203.831 115.332V112.602C203.831 111.741 203.286 111.381 202.627 111.821L189.212 120.498C188.862 120.755 188.57 121.101 188.361 121.507C188.152 121.913 188.031 122.369 188.008 122.837Z" fill="#EBEBEB"/>
<path d="M196.333 126.134L193.259 128.125C193.049 128.278 192.875 128.485 192.749 128.728C192.624 128.971 192.552 129.243 192.539 129.524V130.58C192.539 131.093 192.861 131.307 193.259 131.044L196.333 129.059C196.544 128.906 196.72 128.699 196.846 128.455C196.972 128.211 197.045 127.937 197.058 127.655V126.598C197.058 126.085 196.736 125.878 196.333 126.134Z" fill="#F57E88"/>
<path d="M203.106 121.75L200.032 123.734C199.822 123.889 199.648 124.097 199.523 124.341C199.398 124.585 199.326 124.858 199.312 125.139V126.195C199.312 126.708 199.634 126.916 200.032 126.66L203.106 124.669C203.317 124.517 203.493 124.31 203.619 124.067C203.745 123.824 203.818 123.551 203.831 123.27V122.214C203.831 121.701 203.51 121.475 203.106 121.75Z" fill="#F57E88"/>
<path d="M164.306 154.164L202.581 129.414C203.246 128.98 203.786 129.334 203.786 130.195V131.46C203.763 131.928 203.643 132.384 203.433 132.791C203.224 133.197 202.932 133.542 202.581 133.798L164.306 158.555C163.641 158.989 163.102 158.641 163.102 157.78V156.509C163.124 156.04 163.245 155.583 163.454 155.176C163.663 154.768 163.955 154.422 164.306 154.164Z" fill="#F57E88"/>
<path d="M83.1641 52.4689V115.258C83.1866 115.717 83.3048 116.163 83.5093 116.56C83.7138 116.958 83.9988 117.297 84.3414 117.548L86.4127 118.886C86.7784 119.093 87.1827 119.202 87.5928 119.202C88.0028 119.202 88.4071 119.093 88.7728 118.886L124.05 96.071C124.393 95.8199 124.679 95.4818 124.885 95.084C125.09 94.6862 125.209 94.2398 125.233 93.781V31.0038C125.21 30.5447 125.092 30.098 124.886 29.7C124.681 29.3021 124.394 28.9641 124.05 28.7138L121.984 27.3764C121.618 27.1687 121.214 27.0605 120.804 27.0605C120.394 27.0605 119.99 27.1687 119.624 27.3764L84.3414 50.1972C84.001 50.4472 83.7173 50.7827 83.5129 51.1771C83.3085 51.5714 83.1891 52.0138 83.1641 52.4689Z" fill="#EBEBEB"/>
<path d="M125.222 30.79C125.14 30.1061 124.644 29.8557 124.05 30.2404L88.7732 53.0796C88.423 53.3242 88.1341 53.6647 87.9338 54.0689L83.5078 51.2048C83.7092 50.8035 83.9956 50.4638 84.3418 50.2155L119.624 27.3764C119.99 27.1687 120.394 27.0605 120.804 27.0605C121.214 27.0605 121.619 27.1687 121.984 27.3764L124.05 28.7138C124.367 28.9452 124.636 29.2504 124.838 29.6087C125.04 29.967 125.171 30.3699 125.222 30.79Z" fill="#F5F5F5"/>
<path d="M88.565 118.989C88.5416 118.994 88.5175 118.994 88.4941 118.989C88.449 119.014 88.4015 119.032 88.3524 119.044L88.1126 119.111C87.6366 119.211 87.1456 119.167 86.6899 118.983C86.5998 118.946 86.5124 118.901 86.4283 118.849L84.357 117.511C84.0145 117.26 83.7294 116.921 83.5249 116.524C83.3204 116.126 83.2022 115.68 83.1797 115.221V52.4687C83.1937 52.0095 83.3119 51.5618 83.5231 51.168L87.949 54.032C87.7378 54.4259 87.6197 54.8735 87.6057 55.3328V118.122C87.5936 118.37 87.657 118.616 87.7855 118.818C87.8607 118.92 87.9601 118.995 88.0722 119.035C88.1842 119.075 88.3042 119.078 88.4178 119.044L88.565 118.989Z" fill="#E0E0E0"/>
<path d="M111.734 77.3965C113.277 78.5507 115.256 78.6178 117.261 78.1965" stroke="#455A64" stroke-width="1.25" stroke-miterlimit="10" stroke-linecap="round"/>
<path d="M106.68 65.2934C108.315 64.7621 109.301 65.6659 109.476 68.2552C109.688 71.4429 109.623 74.4413 111.084 76.2794" stroke="#455A64" stroke-width="1.25" stroke-miterlimit="10" stroke-linecap="round"/>
<path d="M103.993 82.3915C102.761 79.0206 102.129 68.6147 105.628 65.9033" stroke="#455A64" stroke-width="1.25" stroke-miterlimit="10" stroke-linecap="round"/>
<path d="M114.549 88.8034C110.532 89.3347 106.744 87.9851 104.602 83.7715" stroke="#455A64" stroke-width="1.25" stroke-miterlimit="10" stroke-linecap="round"/>
<path d="M115.347 86.3427C108.883 87.1305 104.277 83.4482 105.035 71.1126C105.111 69.9523 105.683 68.621 106.452 68.1203H106.479C107.264 67.6378 108.06 68.2058 108.043 69.3783C107.929 78.2025 110.48 82.3001 116.939 81.0177" stroke="#455A64" stroke-width="1.25" stroke-miterlimit="10" stroke-linecap="round"/>
<path d="M113.046 91.747C104.963 92.3576 100.635 86.3425 101.273 73.6588C101.485 69.4696 102.908 64.8285 105.71 63.0148C105.748 62.9848 105.788 62.9582 105.829 62.9354C108.675 61.1828 110.893 63.0209 111.188 67.32C111.471 71.4482 111.575 76.3214 117.663 75.1672" stroke="#455A64" stroke-width="1.25" stroke-miterlimit="10" stroke-linecap="round"/>
<path d="M107.523 94.043C108.749 94.5341 110.038 94.7962 111.339 94.8185" stroke="#455A64" stroke-width="1.25" stroke-miterlimit="10" stroke-linecap="round"/>
<path d="M101.273 88.499C102.317 90.7941 104.056 92.5976 106.179 93.5859" stroke="#455A64" stroke-width="1.25" stroke-miterlimit="10" stroke-linecap="round"/>
<path d="M101.757 65.1279C98.2686 72.34 99.1571 82.013 100.602 86.6786" stroke="#455A64" stroke-width="1.25" stroke-miterlimit="10" stroke-linecap="round"/>
<path d="M112.971 66.8313C112.644 62.9168 111.755 60.2421 109.221 59.6131C107.199 59.1185 104.61 60.5535 102.555 63.7168" stroke="#455A64" stroke-width="1.25" stroke-miterlimit="10" stroke-linecap="round"/>
<path d="M117.917 72.457C115.834 73.2753 113.621 72.7685 113.234 69.2266" stroke="#455A64" stroke-width="1.25" stroke-miterlimit="10" stroke-linecap="round"/>
<path d="M118.064 69.7625C115.884 69.8297 114.875 68.7427 114.346 64.3641C113.534 57.6467 110.433 54.7705 105.625 57.8849C100.578 61.1459 97.5474 69.2251 97.3185 75.9059C96.877 88.4796 100.398 93.481 105.931 96.0153C107.166 96.5675 108.459 96.939 109.779 97.1206" stroke="#455A64" stroke-width="1.25" stroke-miterlimit="10" stroke-linecap="round"/>
<path d="M115.336 60.5791C115.767 63.2233 115.995 66.9118 118.132 66.8324" stroke="#455A64" stroke-width="1.25" stroke-miterlimit="10" stroke-linecap="round"/>
<path d="M110.609 53.8613C112.675 54.2949 114.223 56.2185 115.008 59.052" stroke="#455A64" stroke-width="1.25" stroke-miterlimit="10" stroke-linecap="round"/>
<path d="M102.57 57.7814C104.751 55.2532 107.318 53.8792 109.476 53.7754" stroke="#455A64" stroke-width="1.25" stroke-miterlimit="10" stroke-linecap="round"/>
<path d="M96.2891 69.8301C97.2149 65.8688 98.9147 62.1873 101.266 59.0518" stroke="#455A64" stroke-width="1.25" stroke-miterlimit="10" stroke-linecap="round"/>
<path d="M95.4866 82.3921C95.108 78.8058 95.2164 75.1759 95.8082 71.626" stroke="#455A64" stroke-width="1.25" stroke-miterlimit="10" stroke-linecap="round"/>
<path d="M98.251 92.7123C96.9837 90.172 96.124 87.4024 95.7109 84.5293" stroke="#455A64" stroke-width="1.25" stroke-miterlimit="10" stroke-linecap="round"/>
<path d="M106.561 99.8135C103.999 98.641 101.143 96.9311 99.3281 94.1953" stroke="#455A64" stroke-width="1.25" stroke-miterlimit="10" stroke-linecap="round"/>
<path d="M103.708 101.646C96.0279 98.1283 93.3516 88.8522 93.3516 78.5318C93.3516 68.2115 97.7121 57.0972 105.61 52.2424C110.968 48.9569 118.114 52.5172 118.114 62.8375" stroke="#455A64" stroke-width="1.25" stroke-miterlimit="10" stroke-linecap="round"/>
<path d="M113.516 83.8206C114.48 83.8744 115.447 83.8315 116.404 83.6924" stroke="#455A64" stroke-width="1.25" stroke-miterlimit="10" stroke-linecap="round"/>
<path d="M108.242 80.5596C108.632 81.3788 109.182 82.0878 109.853 82.6328C110.524 83.1777 111.296 83.5443 112.112 83.7045" stroke="#455A64" stroke-width="1.25" stroke-miterlimit="10" stroke-linecap="round"/>
<path d="M106.618 70.1172C106.357 73.6591 106.754 76.914 107.654 79.2284" stroke="#455A64" stroke-width="1.25" stroke-miterlimit="10" stroke-linecap="round"/>
<path d="M108.984 47.7668C111.169 47.2691 113.442 47.7397 115.324 49.0797" stroke="#455A64" stroke-width="1.25" stroke-miterlimit="10" stroke-linecap="round"/>
<path d="M99.3516 54.3008C101.516 51.6495 104.204 49.6022 107.201 48.3223" stroke="#455A64" stroke-width="1.25" stroke-miterlimit="10" stroke-linecap="round"/>
<path d="M96.6562 100.004C97.4479 101.109 98.4424 102.011 99.5724 102.648" stroke="#455A64" stroke-width="1.25" stroke-miterlimit="10" stroke-linecap="round"/>
<path d="M93.0703 93.2012C93.6802 95.0953 94.5621 96.8651 95.6812 98.4407" stroke="#455A64" stroke-width="1.25" stroke-miterlimit="10" stroke-linecap="round"/>
<path d="M7.47656 129.072C7.49637 128.665 7.60085 128.27 7.78163 127.916C7.96241 127.563 8.21448 127.263 8.51765 127.038L62.0163 92.4374C62.3408 92.2538 62.6992 92.1582 63.0628 92.1582C63.4263 92.1582 63.7848 92.2538 64.1093 92.4374L65.2867 93.2008C65.591 93.4228 65.8444 93.7221 66.0262 94.0743C66.2081 94.4266 66.3132 94.8219 66.3332 95.2282V141.169C66.3132 141.576 66.2081 141.972 66.0263 142.326C65.8445 142.679 65.5912 142.979 65.2867 143.203L11.7881 177.803C11.4645 177.987 11.1069 178.083 10.7443 178.083C10.3816 178.083 10.024 177.987 9.70045 177.803L8.5231 177.046C8.21873 176.824 7.96536 176.525 7.78353 176.173C7.6017 175.82 7.49654 175.425 7.47656 175.019V129.072Z" fill="#F57E88"/>
<path opacity="0.4" d="M7.78125 127.917L10.7464 129.835L66.0274 94.0739C65.8493 93.7181 65.5944 93.4178 65.2861 93.2007L64.1033 92.4373C63.7798 92.2538 63.4222 92.1582 63.0595 92.1582C62.6968 92.1582 62.3393 92.2538 62.0157 92.4373L8.52255 127.038C8.21138 127.254 7.95587 127.557 7.78125 127.917Z" fill="white"/>
<path opacity="0.1" d="M7.46875 129.072V175.013C7.48892 175.421 7.5947 175.818 7.7775 176.171C7.96029 176.524 8.21494 176.824 8.52074 177.047L9.69809 177.81C9.7889 177.867 9.88368 177.916 9.98152 177.957C10.3881 178.105 10.8225 178.13 11.2406 178.03C11.3093 178.016 11.3768 177.996 11.4423 177.969C11.4861 177.957 11.5283 177.938 11.5677 177.914C11.4885 177.952 11.4032 177.972 11.3169 177.972C11.2307 177.972 11.1454 177.952 11.0662 177.914C10.9544 177.83 10.8653 177.713 10.8086 177.576C10.7519 177.44 10.7298 177.288 10.7446 177.138V131.185C10.7336 130.977 10.7799 130.769 10.8774 130.591C10.9749 130.413 11.1188 130.273 11.2897 130.19L10.7446 129.835L7.77944 127.918C7.58924 128.266 7.48225 128.664 7.46875 129.072Z" fill="black"/>
<path opacity="0.2" d="M10.7396 129.835L35.513 140.216C36.3702 140.575 37.3109 140.596 38.1799 140.275C39.049 139.954 39.7944 139.311 40.2933 138.451L44.2941 131.612L66.2386 93.9453L45.0681 131.856L66.3258 141.181C66.3054 141.594 66.193 141.995 65.9988 142.347L45.0081 131.966L40.3805 140.253C39.8676 141.172 39.0761 141.854 38.151 142.172C37.2259 142.491 36.2293 142.425 35.344 141.987L32.0736 140.356L11.0448 177.901C10.933 177.817 10.8439 177.7 10.7872 177.563C10.7305 177.426 10.7084 177.275 10.7232 177.125V176.362L31.9319 140.332L10.7396 129.835Z" fill="black"/>
<path d="M199.748 2.39394C199.762 2.23538 199.74 2.07543 199.684 1.92909C199.627 1.78275 199.539 1.65483 199.426 1.55732H199.399L197.219 0.134448C197.086 0.0651835 196.939 0.0371428 196.793 0.0532565C196.648 0.0693702 196.508 0.129048 196.39 0.22605L162.563 22.0088L161.653 18.6073C161.58 18.301 161.405 18.0382 161.162 17.8745L158.96 16.4394C158.794 16.3311 158.604 16.2766 158.411 16.282C158.219 16.2874 158.032 16.3524 157.87 16.4699L143.36 25.8621C143.018 26.1139 142.733 26.4523 142.528 26.85C142.324 27.2478 142.206 27.6938 142.183 28.1521V82.3921C142.171 82.5505 142.193 82.7099 142.249 82.8559C142.306 83.002 142.393 83.1301 142.505 83.2287H142.532L144.712 84.6516H144.739C144.871 84.7096 145.014 84.7299 145.155 84.7108C145.296 84.6916 145.43 84.6335 145.546 84.5417L198.538 50.2646C198.88 50.0128 199.165 49.6744 199.37 49.2767C199.574 48.8789 199.693 48.4329 199.715 47.9746L199.748 2.39394Z" fill="#F57E88"/>
<path opacity="0.4" d="M161.143 17.8554C160.978 17.7597 160.793 17.7143 160.608 17.724C160.422 17.7336 160.242 17.7979 160.086 17.9104L145.57 27.2964C145.224 27.5446 144.938 27.8844 144.736 28.2857L142.523 26.8506C142.72 26.4453 143.007 26.1044 143.357 25.8613L157.873 16.4753C158.034 16.3591 158.222 16.2948 158.414 16.2894C158.606 16.284 158.796 16.3378 158.963 16.4448L161.143 17.8554Z" fill="white"/>
<path opacity="0.4" d="M199.343 1.484C199.214 1.43731 199.077 1.42459 198.943 1.44683C198.809 1.46907 198.681 1.52567 198.569 1.61224L164.415 23.6881C164.276 23.7916 164.117 23.8559 163.951 23.8754C163.785 23.8949 163.618 23.869 163.463 23.7999C163.308 23.7309 163.17 23.6207 163.062 23.4789C162.953 23.3371 162.877 23.1679 162.84 22.9858L162.578 22.0087L196.372 0.177157C196.536 0.0630044 196.725 0.00171847 196.918 6.10175e-05C197.024 -0.00152767 197.129 0.0279312 197.223 0.0855549L199.343 1.484Z" fill="white"/>
<path opacity="0.1" d="M144.58 84.4869C144.613 84.5393 144.651 84.5865 144.695 84.6273L142.553 83.2472C142.468 83.1813 142.399 83.0932 142.351 82.9907C142.327 82.9426 142.309 82.8913 142.296 82.8381C142.255 82.7004 142.235 82.5559 142.236 82.4106V28.1523C142.234 28.0994 142.234 28.0464 142.236 27.9935C142.247 27.8827 142.264 27.7726 142.285 27.6638C142.285 27.6088 142.313 27.5538 142.324 27.4989C142.373 27.3315 142.433 27.1682 142.503 27.0103C142.526 26.9555 142.551 26.9025 142.58 26.8516L144.793 28.2866C144.581 28.6802 144.463 29.128 144.449 29.5874V83.8212C144.444 83.8985 144.444 83.9761 144.449 84.0533C144.447 84.096 144.447 84.1388 144.449 84.1815V84.2487L144.482 84.3342C144.507 84.3911 144.54 84.4428 144.58 84.4869Z" fill="black"/>
<path d="M108.984 173.223C108.956 172.656 108.81 172.103 108.556 171.611C108.302 171.119 107.948 170.7 107.524 170.39L106.335 169.62C105.882 169.366 105.382 169.234 104.874 169.234C104.367 169.234 103.867 169.366 103.414 169.62L63.9452 195.134C63.5203 195.445 63.1666 195.863 62.9128 196.355C62.659 196.848 62.5123 197.4 62.4844 197.968V203.177C62.5123 203.744 62.659 204.297 62.9128 204.789C63.1666 205.281 63.5203 205.7 63.9452 206.01L65.1389 206.78C65.5909 207.036 66.0904 207.169 66.5969 207.169C67.1035 207.169 67.6029 207.036 68.055 206.78L107.524 181.266C107.949 180.956 108.303 180.538 108.557 180.045C108.811 179.553 108.957 179 108.984 178.432V173.223Z" fill="#37474F"/>
<path d="M62.4844 203.177C62.5114 203.745 62.6578 204.297 62.9117 204.79C63.1655 205.282 63.5196 205.7 63.9452 206.01L65.1389 206.78C65.5509 207.011 66.0018 207.141 66.4621 207.163C66.9223 207.186 67.3816 207.098 67.8097 206.908C67.1175 207.201 66.5942 206.767 66.5942 205.833V200.63C66.6112 200.058 66.7595 199.501 67.0248 199.012L62.915 196.355C62.6503 196.843 62.502 197.398 62.4844 197.968V203.177Z" fill="#263238"/>
<path d="M108.929 172.772C108.76 172.076 108.193 171.856 107.517 172.289L68.0486 197.809C67.6152 198.108 67.2599 198.529 67.0184 199.031L62.9141 196.374C63.155 195.874 63.5082 195.453 63.9388 195.153L103.402 169.633C103.856 169.379 104.356 169.247 104.863 169.247C105.37 169.247 105.87 169.379 106.323 169.633L107.517 170.408C107.883 170.674 108.197 171.021 108.44 171.427C108.683 171.834 108.849 172.291 108.929 172.772Z" fill="#455A64"/>
<path d="M71.6189 198.419C72.3874 197.925 73.0088 198.328 73.0088 199.317C72.9828 199.857 72.8434 200.382 72.6018 200.85C72.3603 201.318 72.0235 201.716 71.6189 202.01C70.8558 202.505 70.2344 202.102 70.2344 201.113C70.2606 200.573 70.3996 200.049 70.6401 199.581C70.8806 199.113 71.2159 198.715 71.6189 198.419Z" fill="#E6E6E6"/>
<path d="M76.197 195.47C76.9601 194.976 77.5815 195.379 77.5815 196.368C77.5556 196.907 77.4169 197.432 77.1763 197.9C76.9358 198.368 76.6003 198.765 76.197 199.061C75.4284 199.556 74.8125 199.153 74.8125 198.163C74.8383 197.624 74.9771 197.099 75.2176 196.632C75.4582 196.164 75.7937 195.766 76.197 195.47Z" fill="#E6E6E6"/>
<path d="M80.8063 192.508C81.5749 192.014 82.1963 192.411 82.1963 193.406C82.1699 193.945 82.0302 194.469 81.7887 194.936C81.5471 195.403 81.2106 195.8 80.8063 196.093C80.0433 196.588 79.4219 196.185 79.4219 195.195C79.4481 194.657 79.5871 194.133 79.8276 193.667C80.0682 193.2 80.4035 192.803 80.8063 192.508Z" fill="#E6E6E6"/>
<path d="M85.3743 189.54C86.1374 189.045 86.7588 189.448 86.7588 190.437C86.7326 190.975 86.5936 191.499 86.353 191.966C86.1125 192.433 85.7772 192.83 85.3743 193.124C84.6058 193.619 83.9844 193.222 83.9844 192.227C84.0108 191.688 84.1504 191.163 84.392 190.696C84.6335 190.23 84.9701 189.833 85.3743 189.54Z" fill="#E6E6E6"/>
<path d="M89.9626 186.573C90.7311 186.078 91.3525 186.481 91.3525 187.47C91.3257 188.01 91.1859 188.535 90.9444 189.003C90.703 189.471 90.3666 189.868 89.9626 190.164C89.1995 190.658 88.5781 190.255 88.5781 189.266C88.6039 188.727 88.7427 188.202 88.9833 187.734C89.2238 187.266 89.5593 186.868 89.9626 186.573Z" fill="#E6E6E6"/>
<path d="M94.554 183.605C95.3171 183.11 95.9385 183.513 95.9385 184.503C95.9122 185.042 95.7733 185.566 95.5328 186.034C95.2923 186.502 94.957 186.9 94.554 187.196C93.7854 187.69 93.1641 187.287 93.1641 186.298C93.1901 185.758 93.3295 185.233 93.571 184.765C93.8126 184.297 94.1494 183.9 94.554 183.605Z" fill="#E6E6E6"/>
<path d="M99.1423 180.636C99.9054 180.142 100.527 180.545 100.527 181.534C100.501 182.073 100.362 182.598 100.122 183.066C99.8811 183.534 99.5456 183.931 99.1423 184.227C98.3792 184.722 97.7578 184.319 97.7578 183.329C97.7849 182.791 97.9242 182.266 98.1647 181.799C98.4051 181.331 98.7399 180.933 99.1423 180.636Z" fill="#E6E6E6"/>
<path d="M103.705 177.657C104.473 177.162 105.095 177.559 105.095 178.555C105.068 179.093 104.929 179.618 104.687 180.085C104.446 180.552 104.109 180.948 103.705 181.242C102.942 181.736 102.32 181.333 102.32 180.344C102.347 179.806 102.486 179.282 102.726 178.815C102.967 178.348 103.302 177.951 103.705 177.657Z" fill="#E6E6E6"/>
<path d="M108.984 190.402C108.956 189.835 108.81 189.282 108.556 188.79C108.302 188.298 107.948 187.879 107.524 187.569L106.335 186.817C105.882 186.564 105.382 186.432 104.874 186.432C104.367 186.432 103.867 186.564 103.414 186.817L63.9452 212.331C63.5196 212.641 63.1655 213.06 62.9117 213.552C62.6578 214.044 62.5114 214.597 62.4844 215.165V220.374C62.5123 220.942 62.659 221.494 62.9128 221.986C63.1666 222.478 63.5203 222.897 63.9452 223.207L65.1389 223.977C65.5909 224.233 66.0904 224.366 66.5969 224.366C67.1035 224.366 67.6029 224.233 68.055 223.977L107.524 198.42C107.949 198.11 108.303 197.692 108.557 197.2C108.811 196.707 108.957 196.155 108.984 195.587V190.402Z" fill="#37474F"/>
<path d="M62.4844 220.354C62.5123 220.922 62.659 221.474 62.9128 221.967C63.1666 222.459 63.5203 222.877 63.9452 223.188L65.1389 223.957C65.5509 224.188 66.0018 224.319 66.4621 224.341C66.9223 224.363 67.3816 224.276 67.8097 224.086C67.1175 224.379 66.5942 223.945 66.5942 223.011V217.802C66.6119 217.232 66.7602 216.677 67.0248 216.19L62.915 213.533C62.6503 214.02 62.502 214.575 62.4844 215.145V220.354Z" fill="#263238"/>
<path d="M108.929 189.938C108.76 189.242 108.193 189.022 107.517 189.456L68.0486 214.976C67.6152 215.274 67.2599 215.695 67.0184 216.197L62.9141 213.541C63.155 213.04 63.5082 212.62 63.9388 212.319L103.402 186.817C103.856 186.564 104.356 186.432 104.863 186.432C105.37 186.432 105.87 186.564 106.323 186.817L107.517 187.593C107.881 187.857 108.194 188.201 108.437 188.604C108.68 189.007 108.847 189.461 108.929 189.938Z" fill="#455A64"/>
<path d="M71.6189 215.617C72.3874 215.122 73.0088 215.525 73.0088 216.514C72.9819 217.054 72.8421 217.579 72.6007 218.047C72.3592 218.515 72.0229 218.912 71.6189 219.207C70.8558 219.702 70.2344 219.299 70.2344 218.31C70.2602 217.771 70.399 217.246 70.6395 216.778C70.88 216.31 71.2155 215.912 71.6189 215.617Z" fill="#E6E6E6"/>
<path d="M76.197 212.648C76.9601 212.153 77.5815 212.556 77.5815 213.546C77.5552 214.085 77.4162 214.609 77.1758 215.077C76.9353 215.545 76.6 215.943 76.197 216.239C75.4284 216.733 74.8125 216.33 74.8125 215.341C74.8375 214.802 74.9759 214.277 75.2165 213.809C75.4571 213.34 75.7931 212.943 76.197 212.648Z" fill="#E6E6E6"/>
<path d="M80.8063 209.686C81.5749 209.185 82.1963 209.588 82.1963 210.578C82.1707 211.118 82.0315 211.643 81.7899 212.111C81.5483 212.579 81.2113 212.977 80.8063 213.271C80.0433 213.765 79.4219 213.362 79.4219 212.373C79.4481 211.835 79.5871 211.311 79.8276 210.844C80.0682 210.377 80.4035 209.981 80.8063 209.686Z" fill="#E6E6E6"/>
<path d="M85.3743 206.718C86.1374 206.224 86.7588 206.621 86.7588 207.616C86.7326 208.154 86.5936 208.678 86.353 209.145C86.1125 209.612 85.7772 210.008 85.3743 210.303C84.6058 210.798 83.9844 210.401 83.9844 209.405C84.0108 208.866 84.1504 208.342 84.392 207.875C84.6335 207.408 84.9701 207.012 85.3743 206.718Z" fill="#E6E6E6"/>
<path d="M89.9626 203.751C90.7311 203.256 91.3525 203.659 91.3525 204.648C91.3261 205.187 91.1865 205.711 90.9449 206.178C90.7034 206.645 90.3668 207.042 89.9626 207.335C89.1995 207.83 88.5781 207.433 88.5781 206.444C88.6039 205.904 88.7427 205.38 88.9833 204.912C89.2238 204.444 89.5593 204.046 89.9626 203.751Z" fill="#E6E6E6"/>
<path d="M94.554 200.783C95.3171 200.288 95.9385 200.691 95.9385 201.68C95.9114 202.219 95.772 202.743 95.5316 203.211C95.2912 203.679 94.9564 204.077 94.554 204.373C93.7854 204.868 93.1641 204.465 93.1641 203.476C93.1896 202.936 93.3289 202.41 93.5705 201.942C93.812 201.474 94.1491 201.077 94.554 200.783Z" fill="#E6E6E6"/>
<path d="M99.1423 197.809C99.9054 197.314 100.527 197.718 100.527 198.707C100.501 199.246 100.362 199.77 100.121 200.238C99.8806 200.706 99.5453 201.104 99.1423 201.4C98.3792 201.895 97.7578 201.491 97.7578 200.502C97.7841 199.963 97.923 199.439 98.1635 198.971C98.404 198.503 98.7393 198.105 99.1423 197.809Z" fill="#E6E6E6"/>
<path d="M103.705 194.853C104.473 194.352 105.095 194.755 105.095 195.745C105.067 196.281 104.926 196.803 104.685 197.268C104.443 197.733 104.108 198.127 103.705 198.419C102.942 198.914 102.32 198.511 102.32 197.522C102.349 196.987 102.489 196.467 102.73 196.003C102.97 195.54 103.304 195.146 103.705 194.853Z" fill="#E6E6E6"/>
<path d="M61.189 204.111C61.1606 203.543 61.0137 202.991 60.7599 202.499C60.5062 202.007 60.1528 201.588 59.7282 201.277L58.5345 200.508C58.0824 200.252 57.5829 200.118 57.0764 200.118C56.5699 200.118 56.0704 200.252 55.6183 200.508L37.3749 212.33C36.9493 212.64 36.5952 213.058 36.3414 213.551C36.0875 214.043 35.9411 214.596 35.9141 215.164V237.569C35.9424 238.137 36.0893 238.689 36.3431 239.181C36.5968 239.673 36.9502 240.092 37.3749 240.403L38.5631 241.166C39.0168 241.42 39.5168 241.552 40.0239 241.552C40.5309 241.552 41.031 241.42 41.4847 241.166L59.7227 229.344C60.1492 229.034 60.5044 228.616 60.7593 228.124C61.0141 227.631 61.1613 227.078 61.189 226.51V204.111Z" fill="#F57E88"/>
<path opacity="0.2" d="M35.9141 237.57C35.9424 238.137 36.0893 238.689 36.3431 239.181C36.5968 239.674 36.9502 240.092 37.3749 240.403L38.5631 241.166C38.9751 241.397 39.426 241.528 39.8863 241.55C40.3466 241.572 40.8058 241.485 41.2339 241.295C40.5472 241.588 40.0239 241.154 40.0239 240.22V217.82C40.042 217.251 40.1883 216.697 40.449 216.208L36.3392 213.552C36.0778 214.04 35.9315 214.595 35.9141 215.164V237.57Z" fill="black"/>
<path opacity="0.3" d="M61.1413 203.646C60.9669 202.956 60.4055 202.73 59.7296 203.17L41.4916 214.987C41.058 215.285 40.7026 215.706 40.4614 216.208L36.3516 213.552C36.5961 213.052 36.9508 212.632 37.3817 212.33L55.6143 200.514C56.068 200.26 56.5681 200.128 57.0751 200.128C57.5822 200.128 58.0823 200.26 58.5359 200.514L59.7296 201.283C60.0957 201.549 60.4097 201.896 60.6524 202.302C60.8951 202.708 61.0615 203.166 61.1413 203.646Z" fill="white"/>
<path d="M50.3262 212.874C52.0813 211.738 53.504 212.654 53.504 214.926C53.4442 216.162 53.1254 217.364 52.5733 218.436C52.0211 219.507 51.2513 220.418 50.3262 221.094C48.5711 222.23 47.1484 221.308 47.1484 219.036C47.2073 217.801 47.5258 216.599 48.078 215.528C48.6303 214.457 49.4006 213.548 50.3262 212.874Z" fill="#FAFAFA"/>
<path d="M56.5938 224.978C56.5938 221.246 54.2555 219.738 51.3721 221.601L49.5679 222.767C46.6899 224.63 44.3516 229.167 44.3516 232.898V233.9C45.9868 234.51 54.9041 228.721 56.5938 225.845V224.978Z" fill="#FAFAFA"/>
<path d="M225.352 160.106L218.708 155.831C218.446 155.672 218.059 155.782 217.618 156.179C217.373 156.387 217.127 156.588 216.877 156.79L216.604 156.985L216.114 157.333L215.759 157.553C215.618 157.645 215.47 157.743 215.323 157.828C215.176 157.914 215.056 157.975 214.92 158.048C214.784 158.121 214.658 158.201 214.522 158.268L214.075 158.482L213.704 158.653C213.541 158.726 213.377 158.793 213.214 158.854L212.876 158.995L212.331 159.172L212.02 159.275C211.835 159.337 211.644 159.385 211.475 159.434L211.197 159.507L210.597 159.642L210.352 159.691L209.714 159.795H209.507C209.284 159.795 209.06 159.849 208.837 159.862H208.662C208.428 159.862 208.199 159.862 207.965 159.892H207.801C207.561 159.892 207.322 159.892 207.082 159.892H206.973C206.722 159.892 206.477 159.856 206.226 159.831H206.155L205.387 159.721H205.348L204.705 159.581C204.571 159.415 204.414 159.273 204.242 159.159L204.166 159.111L197.625 154.872C197.08 154.524 196.578 154.775 196.262 155.666C191.972 167.587 182.842 179.678 176.759 182.701C176.638 182.757 176.522 182.824 176.411 182.902C176.334 182.951 176.269 183.006 176.193 183.061C176.116 183.116 176.133 183.11 176.1 183.141C176.008 183.215 175.921 183.297 175.838 183.385C175.751 183.483 175.664 183.58 175.582 183.69C175.147 184.219 174.905 184.913 174.906 185.632L175.784 212.416C175.784 220.221 178.749 228.465 184.799 232.404L191.438 236.678L191.525 236.733C194.597 238.642 198.128 239.415 201.615 238.944C202.918 238.705 204.127 238.031 205.081 237.008C218.354 221.625 224.824 200.771 224.824 189.259L225.701 161.254C225.718 160.631 225.587 160.259 225.352 160.106Z" fill="#F57E88"/>
<path opacity="0.15" d="M191.254 236.58L184.773 232.385C178.729 228.446 175.758 220.202 175.758 212.397L174.875 185.595C174.882 185.129 174.983 184.671 175.172 184.257C175.361 183.842 175.632 183.481 175.965 183.201C175.82 183.339 175.685 183.49 175.562 183.653L182.201 187.928C181.762 188.459 181.52 189.158 181.525 189.882L182.397 216.66C182.392 224.434 185.313 232.617 191.254 236.58Z" fill="black"/>
<path opacity="0.3" d="M225.352 160.093C225.096 159.941 224.714 160.057 224.262 160.454C218.266 165.571 209.354 165.577 204.808 159.648L204.727 159.544C206.968 160.031 209.276 159.981 211.499 159.397C213.722 158.813 215.809 157.708 217.623 156.154C218.092 155.751 218.473 155.648 218.713 155.806L225.352 160.093Z" fill="white"/>
<path opacity="0.5" d="M204.173 159.074C203.666 158.805 203.203 159.074 202.903 159.917C198.619 171.843 189.484 183.928 183.395 186.951C182.937 187.184 182.53 187.526 182.201 187.953L175.562 183.678C175.686 183.515 175.821 183.364 175.966 183.226L176.113 183.092C176.166 183.054 176.217 183.014 176.266 182.969L176.429 182.86C176.534 182.787 176.643 182.724 176.756 182.67C182.839 179.647 191.975 167.556 196.259 155.63C196.488 155.019 196.804 154.695 197.169 154.695C197.329 154.697 197.486 154.747 197.621 154.842L204.173 159.074Z" fill="white"/>
<path d="M236.757 185.816L233.214 183.52L219.32 220.203L221.691 221.735L236.757 185.816Z" fill="#455A64"/>
<path d="M215.71 210.443L212.162 208.153L208.352 217.185L211.9 219.475L215.71 210.443Z" fill="#455A64"/>
<path d="M222.606 232.489L211.906 219.476L215.716 210.444L221.696 221.735L236.761 185.815L242.348 191.922L222.606 232.489Z" fill="#37474F"/>
<path d="M208.352 217.186L211.9 219.476L222.6 232.489L219.057 230.223L208.352 217.186Z" fill="#263238"/>
</svg>
